<svg xmlns="http://www.w3.org/2000/svg" version="1.1" xmlns:xlink="http://www.w3.org/1999/xlink" width="200" height="200"><svg xmlns="http://www.w3.org/2000/svg" version="1.1" xmlns:xlink="http://www.w3.org/1999/xlink" viewBox="0 0 200 200"><rect width="200" height="200" fill="url('#gradient')"></rect><defs><linearGradient id="SvgjsLinearGradient1001" gradientTransform="rotate(45 0.5 0.5)"><stop offset="0%" stop-color="#0ffaec"></stop><stop offset="100%" stop-color="#19d615"></stop></linearGradient></defs><g><g fill="#c0c910" transform="matrix(5.105817174515235,0,0,5.105817174515235,4.520042360720552,136.30661847148906)" stroke="#c51137" stroke-width="1.5"><path d="M9.89-8.57L9.89-6.03L4.50-6.03L4.50-2.64L10.87-2.64L10.87 0L1.07 0L1.07-14.22L10.89-14.22L10.89-11.57L4.50-11.57L4.50-8.57L9.89-8.57ZM23.62-14.22L23.62-11.57L19.36-11.57L19.36 0L15.93 0L15.93-11.57L11.74-11.57L11.74-14.22L23.62-14.22ZM32.89-4.81L36.30-4.81Q36.23-3.33 35.50-2.19Q34.77-1.05 33.44-0.43Q32.12 0.20 30.42 0.20L30.42 0.20Q27.62 0.20 26.01-1.63Q24.39-3.46 24.39-6.79L24.39-6.79L24.39-7.49Q24.39-9.58 25.12-11.15Q25.85-12.71 27.22-13.57Q28.58-14.42 30.38-14.42L30.38-14.42Q32.97-14.42 34.54-13.06Q36.11-11.70 36.33-9.31L36.33-9.31L32.91-9.31Q32.87-10.61 32.26-11.17Q31.64-11.74 30.38-11.74L30.38-11.74Q29.10-11.74 28.51-10.78Q27.91-9.82 27.88-7.72L27.88-7.72L27.88-6.72Q27.88-4.44 28.45-3.47Q29.02-2.49 30.42-2.49L30.42-2.49Q31.60-2.49 32.23-3.05Q32.85-3.60 32.89-4.81L32.89-4.81Z"></path></g></g></svg><style>@media (prefers-color-scheme: light) { :root { filter: none; } }
@media (prefers-color-scheme: dark) { :root { filter: none; } }
</style></svg>